<?xml version="1.0" standalone="no"?>
<!DOCTYPE svg PUBLIC "-//W3C//DTD SVG 20010904//EN"
 "http://www.w3.org/TR/2001/REC-SVG-20010904/DTD/svg10.dtd">
<svg version="1.0" xmlns="http://www.w3.org/2000/svg"
 width="500.000000pt" height="500.000000pt" viewBox="0 0 500.000000 500.000000"
 preserveAspectRatio="xMidYMid meet">

<g transform="translate(0.000000,500.000000) scale(0.100000,-0.100000)"
fill="#000000" stroke="none">
<path d="M3079 3165 c-15 -8 -29 -21 -32 -28 -4 -12 -11 -900 -8 -1014 1 -19
10 -42 21 -53 19 -19 33 -20 249 -20 203 0 231 2 249 17 21 18 21 26 24 540
l3 522 -23 23 c-22 22 -28 23 -240 25 -175 2 -222 0 -243 -12z m109 -35 c11
-18 23 -20 127 -20 104 0 116 2 127 20 9 14 24 20 50 20 25 0 45 -7 58 -20 19
-19 20 -33 20 -520 l0 -501 -25 -24 c-24 -25 -25 -25 -233 -25 -164 0 -212 3
-228 14 -18 14 -19 32 -20 523 -1 574 -4 553 69 553 31 0 45 -5 55 -20z"/>
<path d="M3229 2943 c-1 -5 -1 -11 0 -16 3 -20 -32 -160 -88 -348 -34 -113
-61 -212 -61 -221 0 -35 61 -64 116 -53 34 6 34 6 34 59 0 41 8 70 35 123 52
104 147 198 133 131 -3 -13 -20 -73 -38 -134 -20 -68 -31 -120 -27 -136 11
-41 75 -60 132 -38 20 8 25 15 20 30 -8 25 19 169 46 246 34 100 11 147 -72
146 -45 -1 -68 -12 -121 -60 -23 -20 -39 -32 -37 -27 2 6 21 59 43 118 43 119
43 148 -4 172 -30 15 -109 21 -111 8z"/>
<path d="M368 3100 c-121 -19 -182 -75 -182 -167 0 -60 14 -84 39 -63 21 18
26 9 15 -26 -60 -174 -143 -458 -144 -492 -1 -45 9 -57 59 -74 38 -12 220 -8
283 7 162 38 282 148 282 258 0 76 -37 114 -130 132 l-55 12 53 26 c137 69
199 141 189 219 -13 100 -112 160 -282 171 -38 3 -96 1 -127 -3z m210 -140
c50 -47 15 -117 -96 -190 -98 -65 -108 -64 -80 3 33 82 44 144 30 168 -19 31
-6 39 62 39 49 0 67 -4 84 -20z m-56 -370 c31 -39 23 -78 -26 -126 -43 -41
-98 -65 -178 -80 -47 -8 -47 -7 -8 119 29 90 33 97 63 106 53 17 128 7 149
-19z"/>
<path d="M2643 3085 c-109 -30 -187 -86 -222 -160 -48 -103 -18 -167 131 -283
115 -88 178 -153 178 -181 0 -11 -14 -31 -31 -45 -26 -22 -40 -26 -95 -26
-138 0 -190 73 -116 162 l26 31 -23 18 c-31 25 -69 24 -121 -4 -80 -42 -112
-141 -69 -216 42 -75 131 -111 274 -111 104 0 169 16 237 59 58 37 81 79 81
148 0 70 -29 113 -135 198 -108 87 -175 151 -183 175 -10 32 21 87 66 117 35
23 53 28 103 28 54 0 61 -3 73 -25 11 -22 9 -31 -17 -77 -38 -67 -38 -101 -2
-137 56 -53 142 -44 142 15 0 17 14 61 30 99 52 117 35 186 -53 219 -40 15
-212 12 -274 -4z"/>
<path d="M2154 3082 c-6 -4 -15 -34 -19 -67 -4 -33 -36 -157 -72 -275 -110
-358 -114 -374 -108 -398 7 -27 60 -62 95 -62 14 0 42 5 63 11 l37 10 0 68 c0
77 19 151 110 425 33 98 60 191 60 206 0 57 -117 115 -166 82z"/>
<path d="M1619 2826 c-148 -40 -242 -163 -243 -316 -1 -81 14 -121 63 -173 95
-103 267 -93 375 23 66 70 89 122 94 211 4 67 1 84 -21 132 -30 67 -86 111
-158 126 -58 13 -52 13 -110 -3z m111 -95 c15 -29 12 -150 -6 -212 -21 -71
-69 -146 -107 -166 -30 -15 -31 -15 -55 13 -22 25 -24 34 -19 94 13 146 86
290 147 290 19 0 33 -7 40 -19z"/>
<path d="M3903 2830 c-108 -22 -203 -114 -237 -230 -21 -71 -20 -118 4 -183
35 -94 115 -150 215 -151 116 -1 218 72 275 195 30 65 32 77 28 144 -4 61 -10
82 -36 123 -52 80 -152 121 -249 102z m101 -102 c20 -28 21 -124 2 -194 -15
-57 -60 -146 -85 -168 -56 -48 -101 -17 -101 70 0 183 124 379 184 292z"/>
<path d="M963 2800 c-136 -68 -209 -225 -169 -363 55 -190 290 -230 434 -73
64 69 85 119 90 211 3 73 1 85 -25 135 -18 36 -43 65 -71 85 -38 26 -54 30
-120 33 -70 3 -83 1 -139 -28z m178 -71 c7 -14 10 -55 7 -110 -4 -79 -8 -97
-44 -166 -28 -55 -49 -83 -73 -97 l-34 -20 -23 28 c-30 34 -31 85 -5 189 22
85 38 121 77 166 32 38 77 43 95 10z"/>
<path d="M4356 2808 c-2 -7 -8 -45 -14 -83 -6 -39 -45 -181 -86 -317 -86 -281
-97 -326 -90 -355 12 -44 106 -66 167 -40 25 11 29 18 32 67 3 51 49 257 59
267 2 3 9 -5 15 -16 14 -26 61 -51 95 -51 54 0 140 42 192 94 66 66 94 138 94
239 -1 120 -50 192 -139 204 -42 6 -112 -24 -130 -54 -9 -17 -11 -16 -27 6 -9
13 -32 29 -50 37 -42 18 -113 18 -118 2z m292 -118 c33 -62 -11 -213 -79 -275
-133 -120 -167 113 -37 260 34 39 46 46 72 43 21 -2 35 -11 44 -28z"/>
</g>
</svg>
